<svg width="490" height="321" viewBox="0 0 490 321" fill="none" xmlns="http://www.w3.org/2000/svg">
<path d="M265.442 90.3682V171.013C265.442 183.831 255.809 196.511 239.547 195.957V90.0884C239.547 81.2824 242.221 72.6777 247.224 65.4177C252.358 57.9677 259.689 52.305 268.194 49.2188C276.699 46.1326 285.955 45.7767 294.672 48.2007C303.389 50.6248 311.132 55.7079 316.823 62.7417C322.514 69.7756 325.869 78.4096 326.42 87.4406C326.971 96.4715 324.691 105.449 319.897 113.123C315.104 120.796 308.035 126.783 299.678 130.249C291.32 133.715 283.105 134.289 273.272 134.289V109.303C276.836 110.124 286.377 107.723 289.756 106.322C293.134 104.921 295.991 102.501 297.929 99.3995C299.867 96.2977 300.789 92.6685 300.566 89.018C300.343 85.3674 298.987 81.8773 296.687 79.034C294.386 76.1907 291.256 74.1359 287.732 73.1561C284.209 72.1762 280.467 72.3201 277.029 73.5676C273.591 74.8151 270.628 77.1042 268.553 80.1157C266.477 83.1272 265.384 86.7113 265.442 90.3682Z" fill="url(#paint0_linear_45_9)"/>
<path d="M299.683 130.25C308.04 126.784 322.733 96.5825 296.692 79.0347C298.992 81.878 300.348 85.3683 300.571 89.0188C300.794 92.6694 299.872 96.2985 297.934 99.4004C295.996 102.502 293.139 104.922 289.761 106.323C286.382 107.724 276.842 110.125 273.277 109.304V134.289C283.11 134.289 291.325 133.716 299.683 130.25Z" fill="url(#paint1_linear_45_9)"/>
<path d="M265.442 90.3694V171.014C265.442 183.832 255.809 196.512 239.547 195.959V90.0895C239.547 81.2835 242.221 72.6788 247.224 65.4189C252.358 57.9689 259.689 52.3061 268.194 49.22C288.244 41.4634 307.098 51.7989 314.824 60.4317C302.535 46.702 264.871 56.7431 265.432 89.6173C265.414 88.0354 265.549 93.9096 265.442 90.0895C265.438 89.9316 265.434 89.7742 265.432 89.6173C265.433 89.7814 265.437 90.0257 265.442 90.3694Z" fill="url(#paint2_linear_45_9)"/>
<path fill-rule="evenodd" clip-rule="evenodd" d="M233.665 115.014C233.665 117.467 233.128 118.395 231.697 118.417C223.268 118.54 206.983 120.915 204.816 122.335C202.363 123.942 196.719 133.736 194.94 139.473C194.193 141.882 194.448 142.003 200.24 142.003C203.585 142.003 212.428 142.331 219.891 142.733L233.459 143.462L233.103 184.174L197.68 184.793V189.037C197.68 191.371 197.074 193.89 196.331 194.632C194.54 196.423 179.455 196.423 177.663 194.632C176.723 193.692 176.314 187.669 176.314 174.77C176.314 156.954 176.422 156.073 179.183 151.362L182.052 146.468L178.645 145.787C174.284 144.914 172.687 142.939 173.141 138.978C173.497 135.866 173.617 135.818 181.013 135.818H188.522L192.257 128.098C197.283 117.709 201.352 114.268 209.707 113.346C213.297 112.95 216.993 112.464 217.922 112.263C218.849 112.064 222.772 111.842 226.637 111.77L233.665 111.64V115.014ZM189.552 155.635C186.271 155.636 185.098 157.999 185.098 160.714C185.098 165.076 186.944 165.743 190.9 166.465C205.611 169.147 207.815 167.095 207.815 163.877C207.815 159.852 192.833 155.635 189.552 155.635Z" fill="url(#paint3_linear_45_9)"/>
<path d="M75.7873 255.513C76.7244 255.513 77.5715 255.351 78.3284 255.026C79.0853 254.666 79.716 254.197 80.2206 253.621C80.7613 253.008 81.1758 252.305 81.4641 251.512C81.7525 250.719 81.8966 249.89 81.8966 249.025V248.917C81.8966 248.016 81.7344 247.169 81.4101 246.376C81.1217 245.583 80.6892 244.898 80.1125 244.322C79.5719 243.709 78.9231 243.222 78.1662 242.862C77.4093 242.501 76.5803 242.321 75.6792 242.321C74.7421 242.321 73.8951 242.501 73.1381 242.862C72.3812 243.186 71.7325 243.655 71.1918 244.268C70.6872 244.844 70.2907 245.529 70.0024 246.322C69.714 247.115 69.5699 247.944 69.5699 248.809V248.917C69.5699 249.818 69.714 250.665 70.0024 251.458C70.3268 252.251 70.7593 252.954 71.2999 253.567C71.8766 254.143 72.5434 254.612 73.3003 254.972C74.0572 255.333 74.8862 255.513 75.7873 255.513ZM75.6792 264.217C73.3364 264.217 71.1738 263.821 69.1914 263.028C67.2451 262.235 65.5511 261.154 64.1093 259.784C62.6676 258.378 61.5503 256.757 60.7573 254.918C59.9644 253.08 59.5679 251.116 59.5679 249.025V248.917C59.5679 246.827 59.9644 244.862 60.7573 243.024C61.5863 241.15 62.7217 239.528 64.1634 238.158C65.6051 236.753 67.3172 235.653 69.2995 234.86C71.2819 234.031 73.4445 233.617 75.7873 233.617C78.1301 233.617 80.2747 234.031 82.221 234.86C84.2034 235.653 85.9155 236.735 87.3572 238.104C88.7989 239.474 89.9163 241.078 90.7092 242.916C91.5022 244.754 91.8986 246.719 91.8986 248.809V248.917C91.8986 251.008 91.4841 252.99 90.6551 254.864C89.8622 256.702 88.7449 258.324 87.3031 259.73C85.8614 261.1 84.1493 262.199 82.167 263.028C80.1846 263.821 78.022 264.217 75.6792 264.217ZM118.296 234.266H128.568V263.515H118.296V234.266ZM98.0755 233.779C98.0755 230.391 98.9045 227.868 100.563 226.21C101.464 225.309 102.527 224.66 103.752 224.264C104.978 223.867 106.456 223.669 108.186 223.669C109.772 223.669 111.069 223.741 112.078 223.885C113.124 224.029 114.061 224.228 114.89 224.48V231.725C114.277 231.544 113.664 231.4 113.051 231.292C112.439 231.184 111.772 231.13 111.051 231.13C109.105 231.13 108.132 232.049 108.132 233.887V234.59H114.836V242.483H108.294V263.515H98.0755V242.483H94.6695V234.428H98.0755V233.779ZM118.08 224.047H128.784V231.616H118.08V224.047ZM150.308 255.567C152.002 255.567 153.425 254.954 154.579 253.729C155.732 252.503 156.309 250.9 156.309 248.917V248.809C156.309 246.863 155.732 245.277 154.579 244.051C153.425 242.826 152.002 242.213 150.308 242.213C149.479 242.213 148.704 242.375 147.983 242.7C147.262 243.024 146.631 243.493 146.091 244.105C145.55 244.682 145.117 245.367 144.793 246.16C144.505 246.953 144.36 247.836 144.36 248.809V248.917C144.36 249.89 144.505 250.791 144.793 251.62C145.117 252.413 145.55 253.116 146.091 253.729C146.631 254.306 147.262 254.756 147.983 255.081C148.704 255.405 149.479 255.567 150.308 255.567ZM134.304 234.266H144.577V238.158C145.081 237.546 145.622 236.969 146.199 236.428C146.775 235.888 147.406 235.419 148.091 235.022C148.812 234.59 149.605 234.248 150.47 233.995C151.371 233.743 152.362 233.617 153.443 233.617C155.173 233.617 156.813 233.977 158.363 234.698C159.949 235.383 161.337 236.374 162.526 237.672C163.716 238.969 164.653 240.555 165.338 242.429C166.059 244.304 166.419 246.412 166.419 248.755V248.863C166.419 251.242 166.059 253.387 165.338 255.297C164.653 257.171 163.716 258.775 162.526 260.109C161.373 261.406 160.003 262.415 158.417 263.136C156.867 263.821 155.228 264.163 153.497 264.163C152.38 264.163 151.371 264.037 150.47 263.785C149.605 263.569 148.812 263.28 148.091 262.92C147.37 262.523 146.721 262.073 146.145 261.568C145.568 261.028 145.045 260.487 144.577 259.946V272.165H134.304V234.266ZM182.897 257.73C184.411 257.73 185.636 257.297 186.573 256.432C187.51 255.567 187.979 254.396 187.979 252.918V251.566C187.474 251.35 186.862 251.17 186.141 251.026C185.456 250.882 184.735 250.809 183.978 250.809C182.464 250.809 181.293 251.152 180.464 251.837C179.671 252.485 179.275 253.35 179.275 254.432V254.54C179.275 255.549 179.617 256.342 180.302 256.919C180.987 257.459 181.852 257.73 182.897 257.73ZM179.22 264.163C177.815 264.163 176.517 263.965 175.328 263.569C174.138 263.172 173.093 262.596 172.192 261.839C171.327 261.082 170.642 260.145 170.138 259.027C169.633 257.91 169.381 256.612 169.381 255.135V255.026C169.381 253.513 169.651 252.179 170.192 251.026C170.768 249.872 171.543 248.917 172.516 248.16C173.526 247.403 174.733 246.827 176.139 246.43C177.544 246.034 179.112 245.835 180.842 245.835C182.212 245.835 183.51 245.962 184.735 246.214C185.997 246.43 187.042 246.682 187.871 246.971V246.484C187.871 244.97 187.384 243.799 186.411 242.97C185.474 242.141 184.014 241.727 182.032 241.727C180.482 241.727 179.076 241.871 177.815 242.159C176.553 242.447 175.274 242.844 173.976 243.348L171.868 236.104C173.526 235.419 175.274 234.878 177.112 234.482C178.986 234.049 181.185 233.833 183.708 233.833C186.339 233.833 188.556 234.139 190.358 234.752C192.196 235.365 193.692 236.248 194.845 237.401C195.963 238.483 196.755 239.798 197.224 241.348C197.729 242.862 197.981 244.646 197.981 246.7V263.515H187.817V260.487C186.808 261.604 185.6 262.505 184.194 263.19C182.825 263.839 181.167 264.163 179.22 264.163ZM203.205 234.266H213.478V240.159C214.307 238.176 215.442 236.59 216.884 235.401C218.326 234.212 220.272 233.671 222.723 233.779V244.592H221.858C219.154 244.592 217.082 245.385 215.64 246.971C214.199 248.557 213.478 251.044 213.478 254.432V263.515H203.205V234.266ZM226.331 224.047H236.603V244.051L244.551 234.266H256.175L246.01 245.998L256.445 263.515H245.145L239.252 253.567L236.603 256.648V263.515H226.331V224.047ZM258.474 252.972H269.179V263.515H258.474V252.972Z" fill="#615FFF"/>
<path d="M285.895 264.163C283.408 264.163 280.993 263.821 278.65 263.136C276.307 262.415 274.109 261.316 272.054 259.838L275.893 253.621C277.587 254.738 279.299 255.585 281.029 256.162C282.795 256.702 284.435 256.973 285.949 256.973C287.679 256.973 288.544 256.45 288.544 255.405V255.297C288.544 254.72 288.148 254.27 287.355 253.945C286.562 253.621 285.39 253.242 283.84 252.81C282.399 252.449 281.047 252.035 279.786 251.566C278.524 251.062 277.425 250.467 276.488 249.782C275.551 249.061 274.812 248.196 274.271 247.187C273.73 246.178 273.46 244.934 273.46 243.457V243.348C273.46 241.799 273.748 240.429 274.325 239.24C274.938 238.014 275.767 237.005 276.812 236.212C277.857 235.383 279.083 234.752 280.488 234.32C281.93 233.887 283.498 233.671 285.192 233.671C287.355 233.671 289.481 233.977 291.572 234.59C293.662 235.167 295.555 235.996 297.249 237.077L293.734 243.565C292.221 242.736 290.689 242.087 289.139 241.618C287.589 241.114 286.237 240.861 285.084 240.861C284.291 240.861 283.696 241.006 283.3 241.294C282.903 241.546 282.705 241.871 282.705 242.267V242.375C282.705 242.952 283.102 243.421 283.895 243.781C284.724 244.105 285.913 244.502 287.463 244.97C288.905 245.367 290.256 245.817 291.518 246.322C292.779 246.791 293.879 247.385 294.816 248.106C295.753 248.791 296.492 249.638 297.032 250.647C297.573 251.656 297.843 252.864 297.843 254.27V254.378C297.843 256 297.555 257.423 296.978 258.649C296.402 259.838 295.591 260.847 294.545 261.676C293.5 262.505 292.239 263.118 290.761 263.515C289.283 263.947 287.661 264.163 285.895 264.163ZM318.046 255.567C319.74 255.567 321.164 254.954 322.317 253.729C323.47 252.503 324.047 250.9 324.047 248.917V248.809C324.047 246.863 323.47 245.277 322.317 244.051C321.164 242.826 319.74 242.213 318.046 242.213C317.217 242.213 316.442 242.375 315.721 242.7C315 243.024 314.369 243.493 313.829 244.105C313.288 244.682 312.856 245.367 312.531 246.16C312.243 246.953 312.099 247.836 312.099 248.809V248.917C312.099 249.89 312.243 250.791 312.531 251.62C312.856 252.413 313.288 253.116 313.829 253.729C314.369 254.306 315 254.756 315.721 255.081C316.442 255.405 317.217 255.567 318.046 255.567ZM302.043 234.266H312.315V238.158C312.82 237.546 313.36 236.969 313.937 236.428C314.514 235.888 315.144 235.419 315.829 235.022C316.55 234.59 317.343 234.248 318.208 233.995C319.109 233.743 320.1 233.617 321.182 233.617C322.912 233.617 324.552 233.977 326.101 234.698C327.687 235.383 329.075 236.374 330.264 237.672C331.454 238.969 332.391 240.555 333.076 242.429C333.797 244.304 334.157 246.412 334.157 248.755V248.863C334.157 251.242 333.797 253.387 333.076 255.297C332.391 257.171 331.454 258.775 330.264 260.109C329.111 261.406 327.741 262.415 326.155 263.136C324.606 263.821 322.966 264.163 321.236 264.163C320.118 264.163 319.109 264.037 318.208 263.785C317.343 263.569 316.55 263.28 315.829 262.92C315.108 262.523 314.459 262.073 313.883 261.568C313.306 261.028 312.783 260.487 312.315 259.946V272.165H302.043V234.266ZM350.635 257.73C352.149 257.73 353.374 257.297 354.311 256.432C355.249 255.567 355.717 254.396 355.717 252.918V251.566C355.213 251.35 354.6 251.17 353.879 251.026C353.194 250.882 352.473 250.809 351.716 250.809C350.202 250.809 349.031 251.152 348.202 251.837C347.409 252.485 347.013 253.35 347.013 254.432V254.54C347.013 255.549 347.355 256.342 348.04 256.919C348.725 257.459 349.59 257.73 350.635 257.73ZM346.959 264.163C345.553 264.163 344.255 263.965 343.066 263.569C341.877 263.172 340.831 262.596 339.93 261.839C339.065 261.082 338.38 260.145 337.876 259.027C337.371 257.91 337.119 256.612 337.119 255.135V255.026C337.119 253.513 337.389 252.179 337.93 251.026C338.506 249.872 339.281 248.917 340.255 248.16C341.264 247.403 342.471 246.827 343.877 246.43C345.283 246.034 346.85 245.835 348.581 245.835C349.95 245.835 351.248 245.962 352.473 246.214C353.735 246.43 354.78 246.682 355.609 246.971V246.484C355.609 244.97 355.122 243.799 354.149 242.97C353.212 242.141 351.752 241.727 349.77 241.727C348.22 241.727 346.814 241.871 345.553 242.159C344.291 242.447 343.012 242.844 341.714 243.348L339.606 236.104C341.264 235.419 343.012 234.878 344.85 234.482C346.724 234.049 348.923 233.833 351.446 233.833C354.077 233.833 356.294 234.139 358.096 234.752C359.934 235.365 361.43 236.248 362.583 237.401C363.701 238.483 364.494 239.798 364.962 241.348C365.467 242.862 365.719 244.646 365.719 246.7V263.515H355.555V260.487C354.546 261.604 353.338 262.505 351.933 263.19C350.563 263.839 348.905 264.163 346.959 264.163ZM385.054 264.217C382.856 264.217 380.819 263.821 378.945 263.028C377.071 262.199 375.449 261.1 374.079 259.73C372.746 258.36 371.682 256.757 370.889 254.918C370.133 253.044 369.754 251.08 369.754 249.025V248.917C369.754 246.863 370.133 244.916 370.889 243.078C371.682 241.204 372.764 239.582 374.133 238.212C375.503 236.807 377.143 235.707 379.053 234.914C381 234.085 383.126 233.671 385.433 233.671C388.461 233.671 390.984 234.266 393.002 235.455C395.02 236.644 396.66 238.23 397.922 240.213L390.948 245.403C390.227 244.43 389.452 243.673 388.623 243.132C387.794 242.592 386.748 242.321 385.487 242.321C384.658 242.321 383.883 242.501 383.162 242.862C382.477 243.186 381.883 243.655 381.378 244.268C380.873 244.844 380.477 245.529 380.189 246.322C379.9 247.079 379.756 247.908 379.756 248.809V248.917C379.756 249.854 379.9 250.737 380.189 251.566C380.477 252.359 380.873 253.062 381.378 253.675C381.883 254.252 382.495 254.72 383.216 255.081C383.937 255.405 384.73 255.567 385.595 255.567C386.821 255.567 387.848 255.297 388.677 254.756C389.542 254.216 390.389 253.477 391.218 252.539L398.084 257.513C396.714 259.532 395.002 261.154 392.948 262.379C390.893 263.605 388.262 264.217 385.054 264.217ZM420.431 246.484C420.251 244.862 419.71 243.583 418.809 242.646C417.908 241.672 416.755 241.186 415.349 241.186C413.979 241.186 412.862 241.672 411.997 242.646C411.132 243.583 410.555 244.862 410.267 246.484H420.431ZM416.214 264.217C413.907 264.217 411.799 263.857 409.888 263.136C407.978 262.379 406.32 261.352 404.914 260.055C403.545 258.721 402.463 257.117 401.67 255.243C400.914 253.368 400.535 251.296 400.535 249.025V248.917C400.535 246.791 400.896 244.808 401.616 242.97C402.337 241.096 403.347 239.474 404.644 238.104C405.978 236.699 407.546 235.599 409.348 234.806C411.15 234.013 413.132 233.617 415.295 233.617C417.818 233.617 419.998 234.049 421.837 234.914C423.711 235.779 425.243 236.951 426.432 238.429C427.658 239.87 428.559 241.564 429.135 243.511C429.748 245.421 430.055 247.457 430.055 249.62C430.055 249.944 430.055 250.287 430.055 250.647C430.055 251.008 430.036 251.368 430 251.729H410.429C410.825 253.35 411.564 254.558 412.646 255.351C413.763 256.144 415.133 256.54 416.755 256.54C417.98 256.54 419.097 256.306 420.107 255.837C421.152 255.369 422.197 254.612 423.242 253.567L428.919 258.27C427.513 260.073 425.765 261.514 423.675 262.596C421.62 263.677 419.133 264.217 416.214 264.217Z" fill="#9493FF"/>
<defs>
<linearGradient id="paint0_linear_45_9" x1="262.103" y1="55.7319" x2="310.753" y2="148.112" gradientUnits="userSpaceOnUse">
<stop stop-color="#9E9CFF"/>
<stop offset="1" stop-color="#615FFF"/>
</linearGradient>
<linearGradient id="paint1_linear_45_9" x1="300.812" y1="86.6463" x2="273.277" y2="134.289" gradientUnits="userSpaceOnUse">
<stop offset="0.337659" stop-color="#615FFF"/>
<stop offset="0.67542" stop-color="#9493FF"/>
</linearGradient>
<linearGradient id="paint2_linear_45_9" x1="267.109" y1="46.6125" x2="267.109" y2="195.976" gradientUnits="userSpaceOnUse">
<stop stop-color="#615FFF"/>
<stop offset="1" stop-color="#9493FF"/>
</linearGradient>
<linearGradient id="paint3_linear_45_9" x1="203.366" y1="111.64" x2="203.366" y2="195.976" gradientUnits="userSpaceOnUse">
<stop offset="0.233138" stop-color="#615FFF"/>
<stop offset="0.786647" stop-color="#9493FF"/>
</linearGradient>
</defs>
</svg>
